<?xml version="1.0" encoding="utf-8"?>
<!-- Generator: Adobe Illustrator 19.0.0, SVG Export Plug-In . SVG Version: 6.00 Build 0)  -->
<svg version="1.1" id="Layer_1" xmlns="http://www.w3.org/2000/svg" xmlns:xlink="http://www.w3.org/1999/xlink" x="0px" y="0px"
	 viewBox="0 0 100 100" style="enable-background:new 0 0 100 100;" xml:space="preserve">
<style type="text/css">
	.st0{fill:#FFFFFF;}
</style>
<g id="XMLID_1_">
	<path id="XMLID_5926_" class="st0" d="M50.1,3.3c2.1,0,4.1,0.8,5.7,2.3l39,39c3.1,3.1,3.1,8.2,0,11.3l-39,39
		c-1.5,1.5-3.5,2.3-5.7,2.3c-2.1,0-4.1-0.8-5.7-2.3l-39-39c-3.1-3.1-3.1-8.2,0-11.3l39-39C45.9,4.1,47.9,3.3,50.1,3.3 M50.1,1.3
		c-2.6,0-5.1,1-7.1,2.9l-39,39c-3.9,3.9-3.9,10.2,0,14.1l39,39c2,2,4.5,2.9,7.1,2.9s5.1-1,7.1-2.9l39-39c3.9-3.9,3.9-10.2,0-14.1
		l-39-39C55.2,2.3,52.6,1.3,50.1,1.3L50.1,1.3z"/>
	<path id="XMLID_3423_" class="st0" d="M49.2,35.2v15.5c-0.8-0.3-1.6-0.5-2.5-0.5c-4.2,0-7.5,3.3-7.5,7.5s3.3,7.5,7.5,7.5
		c3.8,0,7-2.9,7.4-6.7h0.1V40.2h6.7v-5H49.2z"/>
</g>
</svg>
