<?xml version="1.0" encoding="utf-8"?>
<!-- Generator: Adobe Illustrator 19.0.0, SVG Export Plug-In . SVG Version: 6.00 Build 0)  -->
<svg version="1.1" id="Layer_1" xmlns="http://www.w3.org/2000/svg" xmlns:xlink="http://www.w3.org/1999/xlink" x="0px" y="0px"
	 viewBox="0 0 16 21.3" style="enable-background:new 0 0 16 21.3;" xml:space="preserve">
<style type="text/css">
	.st0{fill:#FFFFFF;}
</style>
<path id="XMLID_3978_" class="st0" d="M9.5,0c0,0,0.7,2.7,0.7,4.8c0,2.1-1.4,3.7-3.4,3.7c-2.1,0-3.6-1.7-3.6-3.7l0-0.4
	C1.2,6.8,0,9.9,0,13.3c0,4.4,3.6,8,8,8s8-3.6,8-8C16,7.9,13.4,3.1,9.5,0z M7.7,18.3c-1.8,0-3.2-1.4-3.2-3.1c0-1.6,1.1-2.8,2.8-3.1
	c1.8-0.4,3.6-1.2,4.6-2.6c0.4,1.3,0.6,2.6,0.6,4C12.5,16.2,10.4,18.3,7.7,18.3z"/>
</svg>
