<?xml version="1.0" encoding="utf-8"?>
<!-- Generator: Adobe Illustrator 19.0.0, SVG Export Plug-In . SVG Version: 6.00 Build 0)  -->
<svg version="1.1" id="Layer_1" xmlns="http://www.w3.org/2000/svg" xmlns:xlink="http://www.w3.org/1999/xlink" x="0px" y="0px"
	 viewBox="0 0 100 100" style="enable-background:new 0 0 100 100;" xml:space="preserve">
<style type="text/css">
	.st0{fill:#FFFFFF;}
</style>
<g id="XMLID_1_">
	<path id="XMLID_5926_" class="st0" d="M49.8,3.2c2.1,0,4.1,0.8,5.7,2.3l39,39c3.1,3.1,3.1,8.2,0,11.3l-39,39
		c-1.5,1.5-3.5,2.3-5.7,2.3c-2.1,0-4.1-0.8-5.7-2.3l-39-39C2,52.7,2,47.6,5.1,44.5l39-39C45.6,4,47.6,3.2,49.8,3.2 M49.8,1.2
		c-2.6,0-5.1,1-7.1,2.9l-39,39c-3.9,3.9-3.9,10.2,0,14.1l39,39c2,2,4.5,2.9,7.1,2.9s5.1-1,7.1-2.9l39-39c3.9-3.9,3.9-10.2,0-14.1
		l-39-39C54.9,2.1,52.3,1.2,49.8,1.2L49.8,1.2z"/>
	<path id="XMLID_3616_" class="st0" d="M63.1,35.1H36.4v16.7c0,3.7,3,6.7,6.7,6.7h10c3.7,0,6.7-3,6.7-6.7v-5h3.3
		c1.8,0,3.3-1.5,3.3-3.3v-5C66.4,36.6,64.9,35.1,63.1,35.1z M63.1,43.5h-3.3v-5h3.3V43.5z M33.1,65.1h30v-3.3h-30V65.1z"/>
</g>
</svg>
