<?xml version="1.0" encoding="utf-8"?>
<!-- Generator: Adobe Illustrator 19.0.0, SVG Export Plug-In . SVG Version: 6.00 Build 0)  -->
<svg version="1.1" id="Layer_1" xmlns="http://www.w3.org/2000/svg" xmlns:xlink="http://www.w3.org/1999/xlink" x="0px" y="0px"
	 viewBox="0 0 100 100" style="enable-background:new 0 0 100 100;" xml:space="preserve">
<style type="text/css">
	.st0{fill:#FFFFFF;}
</style>
<g id="XMLID_1_">
	<path id="XMLID_5926_" class="st0" d="M50,3c2.1,0,4.1,0.8,5.7,2.3l39,39c3.1,3.1,3.1,8.2,0,11.3l-39,39C54.1,96.1,52.1,97,50,97
		c-2.1,0-4.1-0.8-5.7-2.3l-39-39c-3.1-3.1-3.1-8.2,0-11.3l39-39C45.9,3.9,47.9,3,50,3 M50,1c-2.6,0-5.1,1-7.1,2.9l-39,39
		c-3.9,3.9-3.9,10.2,0,14.1l39,39c2,2,4.5,2.9,7.1,2.9s5.1-1,7.1-2.9l39-39c3.9-3.9,3.9-10.2,0-14.1l-39-39C55.1,2,52.6,1,50,1L50,1
		z"/>
	<path id="XMLID_3511_" class="st0" d="M42.3,52.1l4.7-4.7L35.4,35.8c-2.6,2.6-2.6,6.8,0,9.4L42.3,52.1z M53.5,49.1
		c2.5,1.2,6.1,0.3,8.7-2.3c3.2-3.2,3.8-7.7,1.3-10.1c-2.4-2.4-6.9-1.8-10.1,1.3c-2.6,2.6-3.5,6.2-2.3,8.7L35,62.9l2.3,2.3l11.4-11.4
		l11.4,11.4l2.3-2.3L51.1,51.5L53.5,49.1z"/>
</g>
</svg>
